<svg xmlns="http://www.w3.org/2000/svg" viewBox="0 0 64 64">
  <rect width="64" height="64" rx="14" fill="#150f27"/>
  <g transform="translate(32 33)">
    <path d="M0,0 C -12,-20 -30,-20 -32,-4 C -33,8 -18,13 0,4 Z" fill="#c9a6f5"/>
    <path d="M0,0 C 12,-20 30,-20 32,-4 C 33,8 18,13 0,4 Z" fill="#c9a6f5"/>
    <path d="M0,4 C -8,16 -22,18 -25,9 C -27,3 -14,4 0,10 Z" fill="#b48ee0"/>
    <path d="M0,4 C 8,16 22,18 25,9 C 27,3 14,4 0,10 Z" fill="#b48ee0"/>
    <rect x="-1.5" y="-8" width="3" height="18" rx="1.5" fill="#241338"/>
  </g>
</svg>
